<svg xmlns="http://www.w3.org/2000/svg" viewBox="0 0 32 32" width="32" height="32">
  <!-- App-matching blue gradient background -->
  <defs>
    <radialGradient id="bgGradient" cx="50%" cy="30%" r="70%">
      <stop offset="0%" stop-color="#2a5298"/>
      <stop offset="100%" stop-color="#1e3c72"/>
    </radialGradient>
  </defs>
  <circle cx="16" cy="16" r="16" fill="url(#bgGradient)"/>
  
  <!-- Outer circle (moon arc) -->
  <circle cx="16" cy="16" r="13" fill="none" stroke="#334" stroke-width="0.5" opacity="0.6"/>
  
  <!-- Moon arc (top right, silver) -->
  <path d="M 16 3 A 13 13 0 0 1 29 16" fill="none" stroke="#e8e8e8" stroke-width="2.5" stroke-linecap="round"/>
  
  <!-- Middle circle (sun arc) -->
  <circle cx="16" cy="16" r="10" fill="none" stroke="#334" stroke-width="0.5" opacity="0.6"/>
  
  <!-- Sun arc (bottom, golden) -->
  <path d="M 6 16 A 10 10 0 0 0 26 16" fill="none" stroke="#ffd700" stroke-width="2.5" stroke-linecap="round"/>
  
  <!-- Inner circle (UV/night arc) -->
  <circle cx="16" cy="16" r="7" fill="none" stroke="#334" stroke-width="0.5" opacity="0.6"/>
  
  <!-- Night arc (top half, dark blue) -->
  <path d="M 9 16 A 7 7 0 0 1 23 16" fill="none" stroke="#1a2a4a" stroke-width="2.2" stroke-linecap="round"/>
  
  <!-- UV arc (bottom quarter, during daylight, orange-red) -->
  <path d="M 12.05 21.95 A 7 7 0 0 0 19.95 21.95" fill="none" stroke="#ff6b35" stroke-width="2.2" stroke-linecap="round"/>
  
  <!-- Center dot (current time indicator) -->
  <circle cx="16" cy="16" r="1.5" fill="#fff" opacity="0.9"/>
  
  <!-- Hour markers (subtle, matching theme) -->
  <g stroke="#7a9bd1" stroke-width="0.4" opacity="0.7">
    <!-- 12 o'clock -->
    <line x1="16" y1="2" x2="16" y2="4"/>
    <!-- 3 o'clock -->
    <line x1="30" y1="16" x2="28" y2="16"/>
    <!-- 6 o'clock -->
    <line x1="16" y1="30" x2="16" y2="28"/>
    <!-- 9 o'clock -->
    <line x1="2" y1="16" x2="4" y2="16"/>
  </g>
</svg>